<svg id="_x37__stroke" xmlns="http://www.w3.org/2000/svg" xmlns:xlink="http://www.w3.org/1999/xlink" width="22" height="22" viewBox="0 0 22 22">
  <defs>
    <radialGradient id="radial-gradient" cx="3.285" cy="22.076" r="28.111" gradientUnits="userSpaceOnUse">
      <stop offset="0" stop-color="#ffb140"/>
      <stop offset="0.256" stop-color="#ff5445"/>
      <stop offset="0.599" stop-color="#fc2b82"/>
      <stop offset="1" stop-color="#8e40b7"/>
    </radialGradient>
  </defs>
  <g id="Instagram_1_">
    <rect id="Rectangle_51" data-name="Rectangle 51" width="22" height="22" fill="none"/>
    <path id="Instagram" d="M18.192,5.128a1.32,1.32,0,1,1-1.32-1.32A1.32,1.32,0,0,1,18.192,5.128ZM11,14.667A3.667,3.667,0,1,1,14.667,11,3.667,3.667,0,0,1,11,14.667Zm0-9.315A5.649,5.649,0,1,0,16.649,11,5.649,5.649,0,0,0,11,5.351Zm0-3.369c2.937,0,3.285.011,4.445.064a6.085,6.085,0,0,1,2.043.379,3.409,3.409,0,0,1,1.265.823,3.406,3.406,0,0,1,.823,1.265,6.089,6.089,0,0,1,.379,2.043c.053,1.16.064,1.508.064,4.445s-.011,3.285-.064,4.445a6.085,6.085,0,0,1-.379,2.043,3.644,3.644,0,0,1-2.088,2.088,6.089,6.089,0,0,1-2.043.379c-1.16.053-1.508.064-4.445.064s-3.285-.011-4.445-.064a6.085,6.085,0,0,1-2.043-.379,3.409,3.409,0,0,1-1.265-.823,3.408,3.408,0,0,1-.823-1.265,6.089,6.089,0,0,1-.379-2.043c-.053-1.16-.064-1.508-.064-4.445s.011-3.285.064-4.445a6.085,6.085,0,0,1,.379-2.043,3.409,3.409,0,0,1,.823-1.265,3.406,3.406,0,0,1,1.265-.823,6.089,6.089,0,0,1,2.043-.379C7.715,1.993,8.063,1.982,11,1.982ZM11,0C8.013,0,7.638.013,6.465.066a8.074,8.074,0,0,0-2.67.511A5.39,5.39,0,0,0,1.846,1.846,5.39,5.39,0,0,0,.577,3.795a8.075,8.075,0,0,0-.511,2.67C.013,7.638,0,8.013,0,11s.013,3.362.066,4.535a8.075,8.075,0,0,0,.511,2.67,5.39,5.39,0,0,0,1.269,1.948,5.392,5.392,0,0,0,1.948,1.269,8.075,8.075,0,0,0,2.67.511C7.638,21.987,8.013,22,11,22s3.362-.013,4.535-.066a8.075,8.075,0,0,0,2.67-.511,5.625,5.625,0,0,0,3.217-3.217,8.075,8.075,0,0,0,.511-2.67C21.987,14.362,22,13.987,22,11s-.013-3.362-.066-4.535a8.075,8.075,0,0,0-.511-2.67,5.392,5.392,0,0,0-1.269-1.948A5.393,5.393,0,0,0,18.205.577a8.075,8.075,0,0,0-2.67-.511C14.362.013,13.987,0,11,0Z" fill-rule="evenodd" fill="url(#radial-gradient)"/>
  </g>
</svg>
