<svg xmlns="http://www.w3.org/2000/svg" width="47.495" height="47.494" viewBox="0 0 47.495 47.494">
  <g id="_x31_39_x2C__navigation_x2C__direction_x2C__compass_x2C__gps" transform="translate(-50.037 -50.037)">
    <g id="XMLID_13662_" transform="translate(50.037 50.037)">
      <path id="XMLID_13663_" d="M123.429,105.972a.487.487,0,0,1-.318,0,17.319,17.319,0,0,0-17.139,17.139.487.487,0,0,1,0,.318,17.319,17.319,0,0,0,17.3,17.141c.092,0,.184,0,.276,0a.484.484,0,0,1,.287-.007,17.32,17.32,0,0,0,16.735-17.131.487.487,0,0,1,0-.318A17.319,17.319,0,0,0,123.429,105.972Zm-13.7,18.8h-2.149v-2.149h2.149ZM122.2,107.582h2.149v2.149H122.2Zm2.579,31.271h-2.149v-2.258h2.149Zm9.364-25.746-7.815,12.934,0,.007-.018.027-.017.023-.02.024-.02.022-.022.02-.023.02-.023.017-.027.018-.007,0-12.934,7.815a.537.537,0,0,1-.738-.738l7.815-12.934,0-.007.018-.026.017-.024.02-.023.02-.022.022-.02.023-.02.024-.017.026-.018.007,0,12.934-7.815a.537.537,0,0,1,.738.738Zm4.6,11.668h-2.149v-2.149h2.149Z" transform="translate(-99.523 -99.523)" fill="#e8717d"/>
      <path id="XMLID_13670_" d="M243.672,187.6l2.074,2.074,6.334-10.483L241.6,185.527Z" transform="translate(-219.511 -164.301)" fill="#e8717d"/>
      <path id="XMLID_13671_" d="M186.4,240.72,180.07,251.2l10.483-6.334-2.074-2.074Z" transform="translate(-165.077 -218.734)" fill="#e8717d"/>
      <path id="XMLID_13672_" d="M73.784,50.037A23.747,23.747,0,1,0,97.532,73.784,23.774,23.774,0,0,0,73.784,50.037ZM94.63,74.322H92.15a18.4,18.4,0,0,1-17.4,17.812v2.5a.537.537,0,0,1-1.075,0V92.158A18.4,18.4,0,0,1,55.418,74.322H52.723a.537.537,0,0,1,0-1.075h2.695A18.4,18.4,0,0,1,73.247,55.418V52.723a.537.537,0,0,1,1.074,0v2.695A18.4,18.4,0,0,1,92.15,73.247h2.48a.537.537,0,0,1,0,1.075Z" transform="translate(-50.037 -50.037)" fill="#e8717d"/>
    </g>
  </g>
</svg>
