<svg xmlns="http://www.w3.org/2000/svg" width="27" height="35.625" viewBox="0 0 27 35.625">
  <g id="bin" transform="translate(-66.528 -6)">
    <path id="Path_30" data-name="Path 30" d="M89.4,100l1.867,24.788a4.454,4.454,0,0,0,4.325,4.14h11.35a4.454,4.454,0,0,0,4.325-4.14L113.141,100Zm7.175,25.707a.852.852,0,0,1-.855.9.955.955,0,0,1-.933-.9l-1.04-21.133a1.088,1.088,0,0,1,.983-1.24,1.21,1.21,0,0,1,1.09,1.24Zm5.586,0a.891.891,0,1,1-1.781,0l-.143-21.133a1.05,1.05,0,1,1,2.066,0Zm5.586,0a.945.945,0,0,1-.933.9.861.861,0,0,1-.855-.9l.755-21.133a1.2,1.2,0,0,1,1.09-1.24,1.088,1.088,0,0,1,.983,1.24Z" transform="translate(-21.243 -87.302)" fill="#565656"/>
    <path id="XMLID_2_" d="M93.515,47.136H66.54c-.128-1.5.762-2.736,1.988-2.736H91.535c1.218,0,2.109,1.24,1.981,2.736Z" transform="translate(0 -35.664)" fill="#565656"/>
    <path id="XMLID_1_" d="M197.219,9.748h-9.733l-.014-.556C187.415,7.446,188.513,6,189.923,6h4.866c1.4,0,2.5,1.446,2.451,3.185Z" transform="translate(-112.325)" fill="#565656"/>
  </g>
</svg>
