<svg xmlns="http://www.w3.org/2000/svg" width="22" height="22" viewBox="0 0 22 22">
  <g id="blogger" transform="translate(-9 -8)">
    <path id="Path_25" data-name="Path 25" d="M185.3,185.1h2.4a.8.8,0,0,0,0-1.6h-2.4a.8.8,0,0,0,0,1.6Z" transform="translate(-167.7 -167.7)" fill="#e98624"/>
    <path id="Path_26" data-name="Path 26" d="M190.1,291.5h-4.8a.8.8,0,0,0,0,1.6h4.8a.8.8,0,1,0,0-1.6Z" transform="translate(-167.7 -270.9)" fill="#e98624"/>
    <path id="Path_27" data-name="Path 27" d="M26.556,8H13.444A4.444,4.444,0,0,0,9,12.444V25.556A4.444,4.444,0,0,0,13.444,30H26.556A4.444,4.444,0,0,0,31,25.556V12.444A4.444,4.444,0,0,0,26.556,8ZM26.8,21.356A4.444,4.444,0,0,1,22.356,25.8H17.644A4.444,4.444,0,0,1,13.2,21.356V16.644A4.444,4.444,0,0,1,17.644,12.2H20a4.444,4.444,0,0,1,4.4,4.4h0c0,.663.537.8,1.2.8H26c.442,0,.8.4.8,1.2Z" fill="#e98624"/>
  </g>
</svg>
