<svg xmlns="http://www.w3.org/2000/svg" width="32.492" height="25.994" viewBox="0 0 32.492 25.994">
  <g id="camera" transform="translate(-2 -4)">
    <g id="Group_1" data-name="Group 1" transform="translate(2 4)">
      <path id="Path_1" data-name="Path 1" d="M29.618,29.994H6.874A4.88,4.88,0,0,1,2,25.12v-13A4.88,4.88,0,0,1,6.874,7.249H9.45l1.625-1.625A6.093,6.093,0,0,1,15,4h6.5a6.093,6.093,0,0,1,3.922,1.625l1.625,1.625h2.577a4.88,4.88,0,0,1,4.874,4.874v13A4.88,4.88,0,0,1,29.618,29.994ZM6.874,10.5a1.625,1.625,0,0,0-1.625,1.625v13a1.625,1.625,0,0,0,1.625,1.625H29.618a1.625,1.625,0,0,0,1.625-1.625v-13A1.625,1.625,0,0,0,29.618,10.5H26.369a1.617,1.617,0,0,1-1.149-.476l-2.1-2.1A2.978,2.978,0,0,0,21.5,7.249H15a2.978,2.978,0,0,0-1.625.673l-2.1,2.1a1.617,1.617,0,0,1-1.149.476Z" transform="translate(-2 -4)" fill="#565656"/>
    </g>
    <g id="Group_2" data-name="Group 2" transform="translate(12.56 12.123)">
      <path id="Path_2" data-name="Path 2" d="M14.186,10.625a4.062,4.062,0,1,1-4.062,4.062,4.065,4.065,0,0,1,4.062-4.062m0-1.625a5.686,5.686,0,1,0,5.686,5.686A5.684,5.684,0,0,0,14.186,9Z" transform="translate(-8.5 -9)" fill="#565656"/>
    </g>
    <g id="Group_3" data-name="Group 3" transform="translate(25.882 11.634)">
      <path id="Path_3" data-name="Path 3" d="M18.812,8.7a2.112,2.112,0,1,0,2.112,2.114A2.111,2.111,0,0,0,18.812,8.7Z" transform="translate(-16.7 -8.699)" fill="#565656"/>
    </g>
  </g>
</svg>
