<svg xmlns="http://www.w3.org/2000/svg" width="15.696" height="12.556" viewBox="0 0 15.696 12.556">
  <g id="camera" transform="translate(-2 -4)">
    <g id="Group_1" data-name="Group 1" transform="translate(2 4)">
      <path id="Path_1" data-name="Path 1" d="M15.341,16.557H4.354A2.357,2.357,0,0,1,2,14.2V7.924A2.357,2.357,0,0,1,4.354,5.57H5.6l.785-.785A2.943,2.943,0,0,1,8.278,4h3.139a2.943,2.943,0,0,1,1.894.785l.785.785h1.245A2.357,2.357,0,0,1,17.7,7.924V14.2A2.357,2.357,0,0,1,15.341,16.557ZM4.354,7.139a.785.785,0,0,0-.785.785V14.2a.785.785,0,0,0,.785.785H15.341a.785.785,0,0,0,.785-.785V7.924a.785.785,0,0,0-.785-.785h-1.57a.781.781,0,0,1-.555-.23L12.2,5.894a1.439,1.439,0,0,0-.785-.325H8.278a1.439,1.439,0,0,0-.785.325L6.479,6.909a.781.781,0,0,1-.555.23Z" transform="translate(-2 -4)" fill="#565656"/>
    </g>
    <g id="Group_2" data-name="Group 2" transform="translate(7.101 7.924)">
      <path id="Path_2" data-name="Path 2" d="M11.247,9.785a1.962,1.962,0,1,1-1.962,1.962,1.964,1.964,0,0,1,1.962-1.962m0-.785a2.747,2.747,0,1,0,2.747,2.747A2.746,2.746,0,0,0,11.247,9Z" transform="translate(-8.5 -9)" fill="#565656"/>
    </g>
    <g id="Group_3" data-name="Group 3" transform="translate(13.536 7.688)">
      <path id="Path_3" data-name="Path 3" d="M17.72,8.7A1.02,1.02,0,1,0,18.74,9.72,1.02,1.02,0,0,0,17.72,8.7Z" transform="translate(-16.7 -8.699)" fill="#565656"/>
    </g>
  </g>
</svg>
