<svg id="car" xmlns="http://www.w3.org/2000/svg" width="25.301" height="25.301" viewBox="0 0 25.301 25.301">
  <path id="Path_28" data-name="Path 28" d="M22.783,11.065A1.585,1.585,0,0,0,21.286,10H9.69a1.585,1.585,0,0,0-1.5,1.065L6,17.379v8.434a1.057,1.057,0,0,0,1.054,1.054H8.108a1.054,1.054,0,0,0,1.054-1.054V24.759h12.65v1.054a1.057,1.057,0,0,0,1.054,1.054h1.054a1.054,1.054,0,0,0,1.054-1.054V17.379ZM9.69,21.6a1.581,1.581,0,1,1,1.581-1.581A1.579,1.579,0,0,1,9.69,21.6Zm11.6,0a1.581,1.581,0,1,1,1.581-1.581A1.579,1.579,0,0,1,21.286,21.6ZM8.108,16.325,9.69,11.581h11.6l1.581,4.744Z" transform="translate(-2.837 -4.729)" fill="#565656"/>
  <path id="Path_29" data-name="Path 29" d="M0,0H25.3V25.3H0Z" fill="none"/>
</svg>
