<svg xmlns="http://www.w3.org/2000/svg" width="123.095" height="107.365" viewBox="0 0 123.095 107.365">
  <g id="Group_21" data-name="Group 21" transform="translate(-132.966 -83)">
    <g id="Ellipse_2" data-name="Ellipse 2" transform="translate(132.985 83)" fill="#f42f42" stroke="#707070" stroke-width="3">
      <circle cx="6.55" cy="6.55" r="6.55" stroke="none"/>
      <circle cx="6.55" cy="6.55" r="5.05" fill="none"/>
    </g>
    <path id="Path_3" data-name="Path 3" d="M872.808,1762.452s2.419-.267-3.054,2.217a15.754,15.754,0,0,1-6.375,1.608,11.133,11.133,0,0,1-5.648-1.608c-3.215-1.774-2.328-2.217-2.328-2.217l-.438,3.072,2.766,4.7,6.123,2.523,4.114-.776,2.678-1.747,2.161-4.27Z" transform="translate(-722 -1582.379)" fill="none"/>
    <g id="Rectangle_35" data-name="Rectangle 35" transform="translate(132.985 99.709)" fill="#f42f42" stroke="#707070" stroke-width="3">
      <rect width="13.101" height="53.901" rx="6.55" stroke="none"/>
      <rect x="1.5" y="1.5" width="10.101" height="50.901" rx="5.05" fill="none"/>
    </g>
    <path id="Combined-Shape" d="M-214.11,262.3v3.972c0,2.234-.527,3.971-1.58,4.964a6.4,6.4,0,0,1-4.215,1.738,5.046,5.046,0,0,1-4.215-1.738,7.124,7.124,0,0,1-1.58-4.964V262.3a7.124,7.124,0,0,0,1.58,4.964A5.046,5.046,0,0,0-219.9,269a5.046,5.046,0,0,0,4.215-1.738C-214.637,266.272-214.11,264.534-214.11,262.3Z" transform="translate(359.531 -120.246)" fill="#332e0a" opacity="0.204"/>
    <rect id="Rectangle_36" data-name="Rectangle 36" width="1.709" height="5.126" rx="0.854" transform="translate(135.833 105.579)" fill="#fff"/>
    <text id="自遊" transform="translate(154.061 139.266)" fill="#3b0c0c" font-size="51" font-family="FZYTK--GBK1-0, FZYaoTi"><tspan x="0" y="0">自遊</tspan></text>
    <rect id="Rectangle_37" data-name="Rectangle 37" width="1.709" height="14.24" rx="0.854" transform="translate(135.833 111.275)" fill="#fff"/>
    <rect id="Rectangle_38" data-name="Rectangle 38" width="1.709" height="5.126" rx="0.854" transform="translate(135.833 126.085)" fill="#fff"/>
  </g>
</svg>
