<svg xmlns="http://www.w3.org/2000/svg" width="32.72" height="27.494" viewBox="0 0 32.72 27.494">
  <g id="hotel" transform="translate(-1 -3.5)">
    <rect id="Rectangle_4" data-name="Rectangle 4" width="30.72" height="11.815" transform="translate(2 16.997)" fill="#565656" stroke="#565656" stroke-width="1"/>
    <line id="Line_1" data-name="Line 1" y1="12.997" transform="translate(32.72 16.997)" fill="none" stroke="#565656" stroke-linecap="round" stroke-miterlimit="10" stroke-width="2"/>
    <line id="Line_2" data-name="Line 2" y1="12.997" transform="translate(2 16.997)" fill="none" stroke="#565656" stroke-linecap="round" stroke-miterlimit="10" stroke-width="2"/>
    <path id="Path_4" data-name="Path 4" d="M28.994,4H5.363A2.362,2.362,0,0,0,3,6.363v8.271H5.363V12.271a1.182,1.182,0,0,1,1.182-1.182h8.271A1.182,1.182,0,0,1,16,12.271v2.363H18.36V12.271a1.182,1.182,0,0,1,1.182-1.182h8.271a1.182,1.182,0,0,1,1.182,1.182v2.363h2.363V6.363A2.362,2.362,0,0,0,28.994,4Z" transform="translate(0.182)" fill="#565656" stroke="#565656" stroke-width="1"/>
  </g>
</svg>
