<svg xmlns="http://www.w3.org/2000/svg" width="22.159" height="27.141" viewBox="0 0 22.159 27.141">
  <g id="Layer_2" transform="translate(-84.27 -27)">
    <g id="Group_4" data-name="Group 4" transform="translate(84.77 27.5)">
      <path id="Path_5" data-name="Path 5" d="M300.583,27.5h-.11a6.61,6.61,0,0,0-6.6,6.6v7.966a2.217,2.217,0,0,0,2.215,2.215h.458v7.8a.915.915,0,0,0,.915.915h3.125a.915.915,0,0,0,.915-.915V28.415A.915.915,0,0,0,300.583,27.5Zm-.915,23.672h-1.3v-7.8a.915.915,0,0,0-.915-.915h-1.373a.385.385,0,0,1-.384-.384V34.1a4.779,4.779,0,0,1,3.967-4.7Z" transform="translate(-280.339 -27.5)" fill="#565656" stroke="#565656" stroke-width="1"/>
      <path id="Path_6" data-name="Path 6" d="M93.066,27.5a.915.915,0,0,0-.915.915V35h-1.86v-6.59a.915.915,0,1,0-1.83,0V35H86.6v-6.59a.915.915,0,0,0-1.83,0V37.7a4.306,4.306,0,0,0,2.122,3.727l-.6,8.919a3.088,3.088,0,1,0,6.162,0l-.6-8.918A4.306,4.306,0,0,0,93.983,37.7V28.415A.917.917,0,0,0,93.066,27.5Zm-.915,10.2a2.49,2.49,0,0,1-1.582,2.327.914.914,0,0,0-.576.912l.637,9.529a1.257,1.257,0,1,1-2.509,0l.637-9.529a.915.915,0,0,0-.576-.912A2.49,2.49,0,0,1,86.6,37.7v-.866h5.551V37.7Z" transform="translate(-84.77 -27.5)" fill="#565656" stroke="#565656" stroke-width="1"/>
    </g>
  </g>
</svg>
