<svg xmlns="http://www.w3.org/2000/svg" width="12.359" height="15.269" viewBox="0 0 12.359 15.269">
  <g id="Layer_2" transform="translate(-84.77 -27.5)">
    <g id="Group_4" data-name="Group 4" transform="translate(84.77 27.5)">
      <path id="Path_5" data-name="Path 5" d="M297.791,27.5h-.064a3.861,3.861,0,0,0-3.857,3.857V36.01a1.3,1.3,0,0,0,1.294,1.294h.267v4.558a.534.534,0,0,0,.535.535h1.826a.534.534,0,0,0,.535-.535V28.035A.534.534,0,0,0,297.791,27.5Zm-.535,13.827H296.5V36.769a.535.535,0,0,0-.535-.535h-.8a.225.225,0,0,1-.225-.225V31.357a2.792,2.792,0,0,1,2.317-2.748Z" transform="translate(-285.967 -27.5)" fill="#565656"/>
      <path id="Path_6" data-name="Path 6" d="M89.616,27.5a.534.534,0,0,0-.535.535v3.849H87.995V28.035a.535.535,0,1,0-1.069,0v3.849H85.839V28.035a.535.535,0,0,0-1.069,0v5.424a2.515,2.515,0,0,0,1.239,2.177l-.348,5.21a1.8,1.8,0,1,0,3.6,0l-.348-5.209a2.515,2.515,0,0,0,1.239-2.177V28.035A.536.536,0,0,0,89.616,27.5Zm-.535,5.959a1.454,1.454,0,0,1-.924,1.359.534.534,0,0,0-.336.533l.372,5.566a.734.734,0,1,1-1.465,0L87.1,35.35a.535.535,0,0,0-.336-.533,1.454,1.454,0,0,1-.924-1.359v-.506h3.242Z" transform="translate(-84.77 -27.5)" fill="#565656"/>
    </g>
  </g>
</svg>
