<svg xmlns="http://www.w3.org/2000/svg" width="25.731" height="24.957" viewBox="0 0 25.731 24.957">
  <g id="share" transform="translate(0 0)">
    <path id="Path_31" data-name="Path 31" d="M24.408.21.706,12.639c-.975.511-.935,1.26.088,1.665L3.82,15.5a3.883,3.883,0,0,0,3.437-.494L20.4,4.643c.864-.681.957-.58.206.224L10.216,15.99a1.258,1.258,0,0,0,.495,2.182l.354.138c1.024.4,2.7,1.062,3.717,1.478l3.357,1.366c1.019.415,1.853.759,1.854.765s.006.025.011.026.246-.864.534-1.926L25.655,1.213C25.943.15,25.383-.3,24.408.21Z" fill="#565656"/>
    <path id="Path_32" data-name="Path 32" d="M10.324,19.433,8,18.483c-1.018-.417-1.506.072-1.084,1.089,0,0,2.156,5.194,2.1,5.377s2.068-3.082,2.068-3.082A1.6,1.6,0,0,0,10.324,19.433Z" fill="#565656"/>
  </g>
</svg>
