<svg xmlns="http://www.w3.org/2000/svg" width="16.424" height="19.161" viewBox="0 0 16.424 19.161">
  <path id="subway" d="M139.633,0a5.687,5.687,0,0,1,3.384,1,2.915,2.915,0,0,1,1.406,2.422V13a2.881,2.881,0,0,1-1.342,2.374,5.65,5.65,0,0,1-3.267,1.037l2.278,2.16a.314.314,0,0,1,.086.374.317.317,0,0,1-.321.214H130.566a.317.317,0,0,1-.321-.214.314.314,0,0,1,.086-.374l2.278-2.16a5.65,5.65,0,0,1-3.267-1.037A2.881,2.881,0,0,1,128,13V3.422A2.915,2.915,0,0,1,129.406,1a5.687,5.687,0,0,1,3.384-1Zm-8.554,14.029a1.709,1.709,0,0,0,1.208-2.919,1.709,1.709,0,1,0-2.417,2.417A1.647,1.647,0,0,0,131.079,14.029Zm4.448-5.817V2.737h-5.817V8.212Zm5.817,5.817a1.709,1.709,0,0,0,1.208-2.919,1.709,1.709,0,1,0-2.417,2.417A1.647,1.647,0,0,0,141.344,14.029Zm1.711-5.817V2.737H136.9V8.212Z" transform="translate(-128)" fill="#565656"/>
</svg>
