<svg id="walk" xmlns="http://www.w3.org/2000/svg" width="23.5" height="21.078" viewBox="0 0 23.5 21.078">
  <path id="Path_33" data-name="Path 33" d="M0,0H23.5V21.078H0Z" fill="none"/>
  <path id="Path_34" data-name="Path 34" d="M19.833,3.525A1.674,1.674,0,0,0,21.6,1.963a1.775,1.775,0,0,0-3.525,0A1.671,1.671,0,0,0,19.833,3.525Zm.117,5.382h4.778V7.345H21.18L19.221,4.454a1.706,1.706,0,0,0-1.43-.721,1.928,1.928,0,0,0-.48.061L12,5.261V9.775h1.762V6.594l2.061-.569L12,19.324h1.762l2.81-7.04,2.281,2.7v4.34h1.762v-5.56L18.179,9.823l.72-2.491,1.053,1.576Z" transform="translate(-6.125 -0.204)" fill="#565656"/>
</svg>
