<svg id="wiki" xmlns="http://www.w3.org/2000/svg" width="22" height="22" viewBox="0 0 22 22">
  <rect id="rect2984" width="22" height="22" rx="5" transform="translate(0)" fill="#282828"/>
  <path id="Wikipedia" d="M73.176,116.847H69.623l-.254.044v.341c0,.04.121.074.155.1a.321.321,0,0,0,.155.042l.322.016a.786.786,0,0,1,.619.23c.14.138.163.373.054.7l-3.14,8.2-.12-.036-2-4.487c.029-.067.046-.105.046-.105l1.633-3.357c.19-.354.374-.67.467-.818.171-.269.254-.32.719-.343.095,0,.131-.047.131-.141v-.34l-.024-.036s-1.952-.007-2.841,0v.375c0,.041-.023.074.009.1s.048.041.084.041l.133.017a.782.782,0,0,1,.575.187c.087.117.127.243-.083.747l-1.258,2.754-1.136-2.554c-.373-.816-.465-1.069.1-1.116l.151-.035c.108,0,.091-.043.091-.124v-.357l-.011-.029H61.17l-.013.035v.358c0,.08.079.1.226.123.526.076.517.136,1.037,1.269.078.17.307.682.307.682l1.185,2.557s.134.328.345.838L62.535,126.5l-.1-.028s-2.672-6.191-3.445-8.263a1.478,1.478,0,0,1-.117-.471c0-.21.173-.324.518-.34l.525-.019c.108,0,.283-.045.283-.139v-.34l-.158-.035s-3.273,0-3.934,0L56,116.9v.357c0,.064.086.1.234.121a1.393,1.393,0,0,1,.808.214,2.846,2.846,0,0,1,.446.9c.971,2.564,3.037,7.138,4.042,9.744.289.711.654.822,1.095-.022.454-.926,1.371-2.981,2.039-4.5.625,1.513,1.477,3.56,1.888,4.488.327.742.7.816,1.078.022.99-2.417,3.881-9.689,3.881-9.689a1.937,1.937,0,0,1,.524-.832,1.612,1.612,0,0,1,1.021-.331c.094,0,.131-.048.131-.14v-.341l-.012-.044Z" transform="translate(-53.594 -111.826)" fill="#fff"/>
</svg>
