<svg xmlns="http://www.w3.org/2000/svg" xmlns:xlink="http://www.w3.org/1999/xlink" width="212" height="137" viewBox="0 0 212 137">
  <defs>
    <clipPath id="clip-path">
      <rect width="212" height="137" fill="none"/>
    </clipPath>
    <filter id="Ellipse_1" x="12" y="0" width="43" height="43" filterUnits="userSpaceOnUse">
      <feOffset dy="3" input="SourceAlpha"/>
      <feGaussianBlur stdDeviation="3" result="blur"/>
      <feFlood flood-color="#00062f" flood-opacity="0.529"/>
      <feComposite operator="in" in2="blur"/>
      <feComposite in="SourceGraphic"/>
    </filter>
    <filter id="Union_1" x="0" y="33" width="55.142" height="88.517" filterUnits="userSpaceOnUse">
      <feOffset dy="3" input="SourceAlpha"/>
      <feGaussianBlur stdDeviation="3" result="blur-2"/>
      <feFlood flood-color="#00062f" flood-opacity="0.529"/>
      <feComposite operator="in" in2="blur-2"/>
      <feComposite in="SourceGraphic"/>
    </filter>
    <filter id="自遊" x="54" y="18" width="158" height="119" filterUnits="userSpaceOnUse">
      <feOffset dy="3" input="SourceAlpha"/>
      <feGaussianBlur stdDeviation="3" result="blur-3"/>
      <feFlood flood-color="#00062f" flood-opacity="0.529"/>
      <feComposite operator="in" in2="blur-3"/>
      <feComposite in="SourceGraphic"/>
    </filter>
  </defs>
  <g id="itripLogoWhite" clip-path="url(#clip-path)">
    <g transform="matrix(1, 0, 0, 1, 0, 0)" filter="url(#Ellipse_1)">
      <circle id="Ellipse_1-2" data-name="Ellipse 1" cx="12.5" cy="12.5" r="12.5" transform="translate(21 6)" fill="#fff"/>
    </g>
    <g transform="matrix(1, 0, 0, 1, 0, 0)" filter="url(#Union_1)">
      <path id="Union_1-2" data-name="Union 1" d="M14.645,70.517V20.5q-.849,0-1.733,0C8.222,20.112,0,15.914,0,10.252S4.084,0,9.122,0h18.9c5.038,0,9.122,4.59,9.122,10.252V19.1h0v51.42Z" transform="translate(9 39)" fill="#fff"/>
    </g>
    <g transform="matrix(1, 0, 0, 1, 0, 0)" filter="url(#自遊)">
      <text id="自遊-2" data-name="自遊" transform="translate(63 105)" fill="#fff" font-size="70" font-family="NotoSerifTC-Bold, Noto Serif TC" font-weight="700"><tspan x="0" y="0">自遊</tspan></text>
    </g>
  </g>
</svg>
