<svg xmlns="http://www.w3.org/2000/svg" xmlns:xlink="http://www.w3.org/1999/xlink" width="262" height="167" viewBox="0 0 262 167">
  <defs>
    <clipPath id="clip-path">
      <rect width="262" height="167" fill="none"/>
    </clipPath>
    <filter id="Ellipse_1" x="14" y="0" width="55" height="55" filterUnits="userSpaceOnUse">
      <feOffset dy="3" input="SourceAlpha"/>
      <feGaussianBlur stdDeviation="3" result="blur"/>
      <feFlood flood-color="#00062f" flood-opacity="0.529"/>
      <feComposite operator="in" in2="blur"/>
      <feComposite in="SourceGraphic"/>
    </filter>
    <filter id="Union_1" x="0" y="46" width="68.722" height="114.299" filterUnits="userSpaceOnUse">
      <feOffset dy="3" input="SourceAlpha"/>
      <feGaussianBlur stdDeviation="3" result="blur-2"/>
      <feFlood flood-color="#00062f" flood-opacity="0.529"/>
      <feComposite operator="in" in2="blur-2"/>
      <feComposite in="SourceGraphic"/>
    </filter>
    <filter id="自遊" x="64" y="19" width="198" height="148" filterUnits="userSpaceOnUse">
      <feOffset dy="3" input="SourceAlpha"/>
      <feGaussianBlur stdDeviation="3" result="blur-3"/>
      <feFlood flood-color="#00062f" flood-opacity="0.529"/>
      <feComposite operator="in" in2="blur-3"/>
      <feComposite in="SourceGraphic"/>
    </filter>
  </defs>
  <g id="Logo" clip-path="url(#clip-path)">
    <g transform="matrix(1, 0, 0, 1, 0, 0)" filter="url(#Ellipse_1)">
      <circle id="Ellipse_1-2" data-name="Ellipse 1" cx="18.5" cy="18.5" r="18.5" transform="translate(23 6)" fill="#e69a9a"/>
    </g>
    <g transform="matrix(1, 0, 0, 1, 0, 0)" filter="url(#Union_1)">
      <path id="Union_1-2" data-name="Union 1" d="M20,96.3V27.994Q18.841,28,17.634,28C11.227,27.465,0,21.732,0,14S5.577,0,12.458,0h25.8C45.143,0,50.72,6.268,50.72,14V26.078h0V96.3Z" transform="translate(9 52)" fill="#e69a9a"/>
    </g>
    <g transform="matrix(1, 0, 0, 1, 0, 0)" filter="url(#自遊)">
      <text id="自遊-2" data-name="自遊" transform="translate(73 129)" fill="#707070" font-size="90" font-family="NotoSerifTC-Bold, Noto Serif TC" font-weight="700"><tspan x="0" y="0">自遊</tspan></text>
    </g>
  </g>
</svg>
